<svg width="40" height="40" viewBox="0 0 40 40" fill="none" xmlns="http://www.w3.org/2000/svg">
<path d="M22.7853 5.82558L25.7062 11.6673C26.1045 12.4805 27.1666 13.2605 28.0628 13.4098L33.3568 14.2894C36.7424 14.8537 37.539 17.3098 35.0994 19.7328L30.9836 23.8486C30.2866 24.5456 29.9049 25.8898 30.1207 26.8524L31.299 31.9473C32.2283 35.9801 30.0875 37.5401 26.5194 35.4324L21.5573 32.4949C20.6611 31.9639 19.1841 31.9639 18.2713 32.4949L13.3092 35.4324C9.75769 37.5401 7.60024 35.9635 8.5296 31.9473L9.7079 26.8524C9.92365 25.8898 9.54195 24.5456 8.84492 23.8486L4.72918 19.7328C2.3062 17.3098 3.0862 14.8537 6.47173 14.2894L11.7658 13.4098C12.6453 13.2605 13.7075 12.4805 14.1058 11.6673L17.0266 5.82558C18.6198 2.6558 21.2088 2.6558 22.7853 5.82558Z" fill="#F3BA2F" stroke="#F3BA2F" stroke-width="2.48936" stroke-linecap="round" stroke-linejoin="round"/>
</svg>
